HIERARCHY
ROOT hip
{
  OFFSET 0 98.0000 0
  CHANNELS 6 Xposition Yposition Zposition Zrotation Xrotation Yrotation
  JOINT abdomen
  {
    OFFSET 0 8.0000 0
    CHANNELS 3 Yrotation Xrotation Zrotation
    JOINT abdomen2
    {
      OFFSET 0 12.0000 0
      CHANNELS 3 Yrotation Xrotation Zrotation
      JOINT chest
      {
        OFFSET 0 12.0000 0
        CHANNELS 3 Yrotation Xrotation Zrotation
        JOINT neck
        {
          OFFSET 0 16.0000 0
          CHANNELS 3 Yrotation Xrotation Zrotation
          JOINT head
          {
            OFFSET 0 9.0000 1.0000
            CHANNELS 3 Yrotation Xrotation Zrotation
            End Site
            {
              OFFSET 0 18.0000 0
            }
          }
        }
        JOINT lCollar
        {
          OFFSET 3.0000 12.0000 0
          CHANNELS 3 Yrotation Xrotation Zrotation
          JOINT lShldr
          {
            OFFSET 13.0000 0 0
            CHANNELS 3 Yrotation Xrotation Zrotation
            JOINT lForeArm
            {
              OFFSET 27.0000 0 0
              CHANNELS 3 Yrotation Xrotation Zrotation
              JOINT lHand
              {
                OFFSET 25.0000 0 0
                CHANNELS 3 Yrotation Xrotation Zrotation
                End Site
                {
                  OFFSET 8.0000 0 0
                }
              }
            }
          }
        }
        JOINT rCollar
        {
          OFFSET -3.0000 12.0000 0
          CHANNELS 3 Yrotation Xrotation Zrotation
          JOINT rShldr
          {
            OFFSET -13.0000 0 0
            CHANNELS 3 Yrotation Xrotation Zrotation
            JOINT rForeArm
            {
              OFFSET -27.0000 0 0
              CHANNELS 3 Yrotation Xrotation Zrotation
              JOINT rHand
              {
                OFFSET -25.0000 0 0
                CHANNELS 3 Yrotation Xrotation Zrotation
                End Site
                {
                  OFFSET -8.0000 0 0
                }
              }
            }
          }
        }
      }
    }
  }
  JOINT lThigh
  {
    OFFSET 9.0000 -6.0000 0
    CHANNELS 3 Yrotation Xrotation Zrotation
    JOINT lShin
    {
      OFFSET 0 -43.0000 0
      CHANNELS 3 Yrotation Xrotation Zrotation
      JOINT lFoot
      {
        OFFSET 0 -41.0000 0
        CHANNELS 3 Yrotation Xrotation Zrotation
        JOINT lToe
        {
          OFFSET 0 -7.0000 12.0000
          CHANNELS 3 Yrotation Xrotation Zrotation
          End Site
          {
            OFFSET 0 0 5.0000
          }
        }
      }
    }
  }
  JOINT rThigh
  {
    OFFSET -9.0000 -6.0000 0
    CHANNELS 3 Yrotation Xrotation Zrotation
    JOINT rShin
    {
      OFFSET 0 -43.0000 0
      CHANNELS 3 Yrotation Xrotation Zrotation
      JOINT rFoot
      {
        OFFSET 0 -41.0000 0
        CHANNELS 3 Yrotation Xrotation Zrotation
        JOINT rToe
        {
          OFFSET 0 -7.0000 12.0000
          CHANNELS 3 Yrotation Xrotation Zrotation
          End Site
          {
            OFFSET 0 0 5.0000
          }
        }
      }
    }
  }
}
MOTION
Frames: 18
Frame Time: 0.0333333
0 98.0000 0 0 0 0 0 0 0 0 8.0000 0 0 0 0 0 5.0000 0 0 10.0000 0 0 0 0 0 0 -60.0000 -70.0000 0 0 0 0 15.0000 0 0 0 0 0 70.0000 75.0000 0 0 0 -15.0000 0 0 -20.0000 0 0 50.0000 0 0 10.0000 0 0 0 0 0 -20.0000 0 0 50.0000 0 0 0 0 0 0 0
0 98.6237 1.6667 0 0 1.0453 0 0 0 0 8.6272 0 -0.6272 0 0 0 4.9726 0 3.1359 9.9452 0 0 0 0 -2.6132 0 -60.0000 -73.1359 0 0 0.5384 2.0201 14.9273 0 0 0 2.0906 0 70.0000 74.9178 0 0 0 -14.9178 0 0 -22.6132 0 0 52.6132 0 0 9.9452 0 0 0 0 0 -17.3868 0 0 47.3868 0 0 0 0 0 0 0
0 99.2202 3.3333 0 0 2.0791 0 0 0 0 9.2475 0 -1.2475 0 0 0 4.8907 0 6.2374 9.7815 0 0 0 0 -5.1978 0 -60.0000 -76.2374 0 0 1.0550 4.0224 14.7093 0 0 0 4.1582 0 70.0000 74.6722 0 0 0 -14.6722 0 0 -25.1978 0 0 55.1978 0 0 9.7815 0 0 0 0 0 -14.8022 0 0 44.8022 0 0 0 0 0 0 0
0 99.7634 5.0000 0 0 3.0902 0 0 0 0 9.8541 0 -1.8541 0 0 0 4.7553 0 9.2705 9.5106 0 0 0 0 -7.7254 0 -60.0000 -79.2705 0 0 1.5285 5.9890 14.3458 0 0 0 6.1803 0 70.0000 74.2658 0 0 0 -14.2658 0 0 -27.7254 0 0 57.7254 0 0 9.5106 0 0 0 0 0 -12.2746 0 0 42.2746 0 0 0 0 0 0 0
0 100.2294 6.6667 0 0 4.0674 0 0 0 0 10.4404 0 -2.4404 0 0 0 4.5677 0 12.2021 9.1355 0 0 0 0 -10.1684 0 -60.0000 -82.2021 0 0 1.9394 7.9017 13.8371 0 0 0 8.1347 0 70.0000 73.7032 0 0 0 -13.7032 0 0 -30.1684 0 0 60.1684 0 0 9.1355 0 0 0 0 0 -9.8316 0 0 39.8316 0 0 0 0 0 0 0
0 100.5981 8.3333 0 0 5.0000 0 0 0 0 11.0000 0 -3.0000 0 0 0 4.3301 0 15.0000 8.6603 0 0 0 0 -12.5000 0 -60.0000 -85.0000 0 0 2.2698 9.7415 13.1838 0 0 0 10.0000 0 70.0000 72.9904 0 0 0 -12.9904 0 0 -32.5000 0 0 62.5000 0 0 8.6603 0 0 0 0 0 -7.5000 0 0 37.5000 0 0 0 0 0 0 0
0 100.8532 10.0000 0 0 5.8779 0 0 0 0 11.5267 0 -3.5267 0 0 0 4.0451 0 17.6336 8.0902 0 0 0 0 -14.6946 0 -60.0000 -87.6336 0 0 2.5050 11.4894 12.3873 0 0 0 11.7557 0 70.0000 72.1353 0 0 0 -12.1353 0 0 -34.6946 0 0 64.6946 0 0 8.0902 0 0 0 0 0 -5.3054 0 0 35.3054 0 0 0 0 0 0 0
0 100.9836 11.6667 0 0 6.6913 0 0 0 0 12.0148 0 -4.0148 0 0 0 3.7157 0 20.0739 7.4314 0 0 0 0 -16.7283 0 -60.0000 -90.0739 0 0 2.6335 13.1256 11.4502 0 0 0 13.3826 0 70.0000 71.1472 0 0 0 -11.1472 0 0 -36.7283 0 0 66.7283 0 0 7.4314 0 0 0 0 0 -3.2717 0 0 33.2717 0 0 0 0 0 0 0
0 100.9836 13.3333 0 0 7.4314 0 0 0 0 12.4589 0 -4.4589 0 0 0 3.3457 0 22.2943 6.6913 0 0 0 0 -18.5786 0 -60.0000 -92.2943 0 0 2.6482 14.6303 10.3770 0 0 0 14.8629 0 70.0000 70.0370 0 0 0 -10.0370 0 0 -38.5786 0 0 68.5786 0 0 6.6913 0 0 0 0 0 -1.4214 0 0 31.4214 0 0 0 0 0 0 0
0 100.8532 15.0000 0 0 8.0902 0 0 0 0 12.8541 0 -4.8541 0 0 0 2.9389 0 24.2705 5.8779 0 0 0 0 -20.2254 0 -60.0000 -94.2705 0 0 2.5465 15.9840 9.1744 0 0 0 16.1803 0 70.0000 68.8168 0 0 0 -8.8168 0 0 -40.2254 0 0 70.2254 0 0 5.8779 0 0 0 0 0 0.2254 0 0 29.7746 0 0 0 0 0 0 0
0 100.5981 16.6667 0 0 8.6603 0 0 0 0 13.1962 0 -5.1962 0 0 0 2.5000 0 25.9808 5.0000 0 0 0 0 -21.6506 0 -60.0000 -95.9808 0 0 2.3310 17.1677 7.8519 0 0 0 17.3205 0 70.0000 67.5000 0 0 0 -7.5000 0 0 -41.6506 0 0 71.6506 0 0 5.0000 0 0 0 0 0 1.6506 0 0 28.3494 0 0 0 0 0 0 0
0 100.2294 18.3333 0 0 9.1355 0 0 0 0 13.4813 0 -5.4813 0 0 0 2.0337 0 27.4064 4.0674 0 0 0 0 -22.8386 0 -60.0000 -97.4064 0 0 2.0097 18.1638 6.4223 0 0 0 18.2709 0 70.0000 66.1010 0 0 0 -6.1010 0 0 -42.8386 0 0 72.8386 0 0 4.0674 0 0 0 0 0 2.8386 0 0 27.1614 0 0 0 0 0 0 0
0 99.7634 20.0000 0 0 9.5106 0 0 0 0 13.7063 0 -5.7063 0 0 0 1.5451 0 28.5317 3.0902 0 0 0 0 -23.7764 0 -60.0000 -98.5317 0 0 1.5958 18.9565 4.9017 0 0 0 19.0211 0 70.0000 64.6353 0 0 0 -4.6353 0 0 -43.7764 0 0 73.7764 0 0 3.0902 0 0 0 0 0 3.7764 0 0 26.2236 0 0 0 0 0 0 0
0 99.2202 21.6667 0 0 9.7815 0 0 0 0 13.8689 0 -5.8689 0 0 0 1.0396 0 29.3444 2.0791 0 0 0 0 -24.4537 0 -60.0000 -99.3444 0 0 1.1076 19.5328 3.3093 0 0 0 19.5630 0 70.0000 63.1187 0 0 0 -3.1187 0 0 -44.4537 0 0 74.4537 0 0 2.0791 0 0 0 0 0 4.4537 0 0 25.5463 0 0 0 0 0 0 0
0 98.6237 23.3333 0 0 9.9452 0 0 0 0 13.9671 0 -5.9671 0 0 0 0.5226 0 29.8357 1.0453 0 0 0 0 -24.8630 0 -60.0000 -99.8357 0 0 0.5672 19.8827 1.6673 0 0 0 19.8904 0 70.0000 61.5679 0 0 0 -1.5679 0 0 -44.8630 0 0 74.8630 0 0 1.0453 0 0 0 0 0 4.8630 0 0 25.1370 0 0 0 0 0 0 0
0 98.0000 25.0000 0 0 10.0000 0 0 0 0 14.0000 0 -6.0000 0 0 0 0 0 30.0000 0 0 0 0 0 -25.0000 0 -60.0000 -100.0000 0 0 0 20.0000 0 0 0 0 20.0000 0 70.0000 60.0000 0 0 0 0 0 0 -45.0000 0 0 75.0000 0 0 0 0 0 0 0 0 5.0000 0 0 25.0000 0 0 0 0 0 0 0
0 97.3763 26.6667 0 0 9.9452 0 0 0 0 13.9671 0 -5.9671 0 0 0 -0.5226 0 29.8357 -1.0453 0 0 0 0 -24.8630 0 -60.0000 -99.8357 0 0 -0.5672 19.8827 -1.6673 0 0 0 19.8904 0 70.0000 58.4321 0 0 0 1.5679 0 0 -44.8630 0 0 74.8630 0 0 -1.0453 0 0 0 0 0 4.8630 0 0 25.1370 0 0 0 0 0 0 0
0 96.7798 28.3333 0 0 9.7815 0 0 0 0 13.8689 0 -5.8689 0 0 0 -1.0396 0 29.3444 -2.0791 0 0 0 0 -24.4537 0 -60.0000 -99.3444 0 0 -1.1076 19.5328 -3.3093 0 0 0 19.5630 0 70.0000 56.8813 0 0 0 3.1187 0 0 -44.4537 0 0 74.4537 0 0 -2.0791 0 0 0 0 0 4.4537 0 0 25.5463 0 0 0 0 0 0 0
